<?xml version="1.0" standalone="no"?>
<!DOCTYPE svg PUBLIC "-//W3C//DTD SVG 20010904//EN"
 "http://www.w3.org/TR/2001/REC-SVG-20010904/DTD/svg10.dtd">
<svg version="1.0" xmlns="http://www.w3.org/2000/svg"
 width="700.000000pt" height="700.000000pt" viewBox="0 0 700.000000 700.000000"
 preserveAspectRatio="xMidYMid meet">
<metadata>
Created by potrace 1.11, written by Peter Selinger 2001-2013
</metadata>
<g transform="translate(0.000000,700.000000) scale(0.100000,-0.100000)"
fill="#000000" stroke="none">
<path d="M879 5910 c-1 -3 -2 -121 -3 -262 l-1 -258 255 -1 c140 0 264 -2 275
-3 121 -16 197 -67 226 -153 11 -30 13 -365 13 -1678 0 -1783 3 -1683 -57
-1751 -65 -75 -126 -87 -447 -90 -140 -1 -257 -2 -260 -3 -3 0 -5 -118 -5
-261 l0 -260 1277 0 1278 0 0 263 0 262 -257 1 c-142 0 -280 4 -308 8 -65 9
-148 47 -181 83 -59 64 -57 34 -58 806 -1 389 1 708 4 708 3 1 289 2 635 4
685 2 746 5 950 40 540 94 897 354 1058 770 16 39 45 141 53 179 24 126 34
381 19 479 -4 23 -9 56 -11 72 -24 151 -96 330 -189 465 -48 70 -194 213 -275
271 -152 107 -363 197 -581 249 -47 11 -99 22 -115 24 -16 2 -60 9 -99 14 -38
6 -108 14 -155 18 -94 8 -3039 12 -3041 4z m2686 -535 c287 -34 448 -97 577
-228 122 -125 178 -297 179 -548 0 -104 -8 -160 -37 -254 -85 -283 -326 -440
-739 -483 -38 -4 -257 -7 -485 -7 l-415 0 -1 760 c-1 418 1 764 3 768 8 13
796 6 918 -8z"/>
<path d="M5530 2129 c-89 -14 -102 -18 -163 -48 -206 -101 -318 -317 -284
-551 10 -75 15 -92 44 -150 89 -183 259 -290 463 -292 158 -2 271 43 380 152
73 73 112 138 135 226 58 229 -25 456 -214 582 -99 66 -248 100 -361 81z"/>
</g>
</svg>
