<?xml version="1.0" standalone="no"?>
<!DOCTYPE svg PUBLIC "-//W3C//DTD SVG 20010904//EN"
 "http://www.w3.org/TR/2001/REC-SVG-20010904/DTD/svg10.dtd">
<svg version="1.0" xmlns="http://www.w3.org/2000/svg"
 width="16.000000pt" height="16.000000pt" viewBox="0 0 16.000000 16.000000"
 preserveAspectRatio="xMidYMid meet">
<metadata>
Created by potrace 1.11, written by Peter Selinger 2001-2013
</metadata>
<g transform="translate(0.000000,16.000000) scale(0.002286,-0.002286)"
fill="#000000" stroke="none">
<path d="M3279 6836 c-2 -2 -38 -6 -79 -9 -751 -59 -1485 -400 -2041 -946
l-131 -129 103 -99 c225 -213 359 -347 359 -358 0 -6 -10 -20 -23 -32 -33 -28
-184 -232 -252 -338 -70 -112 -192 -358 -239 -486 -70 -190 -121 -396 -142
-569 -3 -25 -7 -56 -10 -70 -3 -14 -7 -126 -9 -250 -4 -204 6 -367 29 -485 3
-16 10 -55 16 -85 39 -209 152 -536 247 -708 69 -127 91 -164 146 -247 195
-295 452 -555 738 -748 271 -182 548 -305 859 -382 131 -32 162 -38 245 -50
22 -4 51 -8 65 -10 55 -10 232 -19 350 -19 193 0 355 16 515 51 39 8 83 17 99
20 49 8 226 63 326 100 573 215 1061 629 1382 1173 39 67 96 179 142 282 58
129 136 379 162 515 42 225 49 303 49 538 0 250 -9 349 -46 534 -27 137 -81
322 -125 436 -33 84 -158 345 -186 390 -7 10 -37 58 -67 105 -191 302 -473
588 -776 784 -150 97 -137 89 -259 152 -173 89 -442 190 -578 218 -13 3 -54
12 -93 20 -38 8 -88 18 -110 21 -22 4 -47 8 -55 10 -8 1 -49 6 -90 10 -41 4
-91 9 -110 11 -51 5 -338 5 -385 0 -33 -4 -150 -17 -190 -21 -13 -1 -93 -14
-131 -21 -57 -10 -230 -56 -322 -85 -289 -93 -604 -264 -845 -458 -48 -39 -91
-71 -95 -71 -4 0 -58 51 -121 114 l-113 114 98 82 c205 171 486 339 739 445
50 20 99 41 110 46 11 5 61 22 110 38 169 55 333 94 485 116 19 3 49 7 65 10
38 6 100 13 190 20 87 8 350 8 430 0 128 -11 172 -16 235 -26 36 -6 79 -13 95
-16 106 -16 290 -65 440 -115 731 -247 1367 -804 1719 -1507 123 -245 232
-573 270 -811 3 -19 7 -44 10 -55 7 -34 25 -196 32 -280 10 -138 5 -382 -11
-520 -2 -22 -7 -62 -10 -90 -3 -27 -8 -59 -10 -71 -3 -12 -7 -39 -10 -60 -10
-64 -65 -282 -97 -384 -56 -175 -142 -371 -246 -560 -33 -61 -208 -329 -221
-340 -3 -3 -24 -27 -45 -55 -204 -258 -477 -501 -772 -686 -144 -90 -441 -239
-477 -239 -7 0 -17 -4 -23 -9 -13 -12 -200 -74 -314 -105 -110 -29 -279 -64
-348 -72 -26 -3 -58 -7 -71 -9 -139 -24 -602 -24 -714 0 -12 2 -42 6 -67 9
-273 31 -612 134 -903 275 -594 288 -1081 769 -1377 1361 -151 300 -260 651
-295 950 -3 25 -8 61 -10 80 -3 19 -7 96 -11 170 -3 74 -7 140 -9 146 -2 8
-35 11 -102 8 -54 -2 -124 -3 -157 -3 l-58 -1 6 -147 c3 -82 8 -157 10 -168 2
-11 7 -51 11 -89 4 -38 9 -81 11 -95 48 -280 110 -507 204 -741 44 -111 159
-348 204 -418 14 -23 26 -44 26 -47 0 -9 161 -246 214 -315 648 -839 1621
-1317 2671 -1313 448 2 888 93 1300 268 114 48 320 153 367 186 14 11 29 19
32 19 25 0 312 205 451 323 233 198 505 506 635 722 13 22 28 41 32 43 4 2 8
7 8 12 0 4 19 39 42 76 55 91 168 319 208 419 127 319 198 602 234 935 13 118
15 570 3 645 -3 17 -8 55 -11 85 -12 101 -15 118 -27 182 -6 35 -13 72 -14 83
-2 11 -13 61 -25 110 -97 409 -285 823 -534 1170 -164 230 -401 479 -626 661
-235 189 -509 352 -791 473 -105 44 -389 143 -389 135 0 -3 -8 0 -18 5 -11 6
-30 12 -43 15 -13 2 -55 12 -94 21 -84 20 -88 21 -145 30 -25 4 -54 9 -64 11
-11 2 -54 8 -95 13 -42 6 -96 13 -121 16 -49 7 -545 16 -551 11z m406 -970
c171 -13 336 -44 515 -97 156 -47 155 -46 183 -137 39 -123 50 -189 50 -312 2
-222 -36 -376 -145 -595 -71 -142 -270 -438 -389 -580 -10 -11 -45 -54 -79
-95 -55 -66 -144 -165 -261 -292 l-36 -39 -786 788 c-652 653 -784 790 -774
802 7 8 59 49 116 92 367 273 805 436 1251 465 52 3 96 7 97 8 4 3 181 -2 258
-8z m1141 -396 c554 -374 937 -987 1023 -1635 21 -157 29 -414 17 -520 -2 -16
-7 -64 -11 -105 -4 -41 -9 -77 -10 -80 -2 -3 -6 -26 -10 -50 -52 -354 -258
-792 -518 -1103 l-24 -29 -54 57 c-95 100 -1159 1160 -1167 1163 -4 1 -57 -47
-117 -108 l-109 -109 114 -116 c63 -64 117 -117 118 -120 2 -2 -20 3 -50 10
-29 8 -70 16 -90 19 -58 9 -109 17 -130 21 -172 33 -560 16 -766 -34 -39 -10
-71 -17 -70 -15 2 1 206 206 453 456 248 249 508 521 579 603 212 248 382 480
504 689 196 332 273 660 238 1004 -3 28 -3 52 0 52 3 0 39 -23 80 -50z m-2318
-1184 c430 -431 782 -788 782 -793 0 -5 -352 -360 -781 -788 l-781 -778 -37
41 c-246 281 -460 724 -521 1082 -5 30 -11 64 -13 75 -3 11 -8 47 -11 80 -4
33 -9 80 -12 105 -7 68 -7 307 0 380 18 175 32 263 61 380 82 327 243 653 455
918 36 45 67 81 70 82 3 0 358 -353 788 -784z m1207 -1830 c325 -36 636 -148
904 -328 117 -79 155 -111 308 -262 l143 -141 -23 -20 c-39 -37 -220 -170
-287 -212 -233 -145 -493 -250 -762 -307 -62 -14 -140 -27 -173 -31 -33 -4
-71 -9 -85 -11 -51 -9 -358 -11 -445 -3 -108 10 -138 15 -305 46 -200 37 -552
179 -722 291 -28 17 -52 32 -54 32 -13 0 -252 180 -253 191 -1 10 294 298 354
345 300 234 666 380 1030 410 44 3 81 7 83 9 5 4 226 -3 287 -9z"/>
</g>
</svg>
