<svg version="1" xmlns="http://www.w3.org/2000/svg" width="1600" height="1600" viewBox="0 0 1200.000000 1200.000000"><path d="M278.6 371.7c.1 62.1.5 113.9.8 115.3.4 1.4.9 4.1 1.2 6 1.6 9.5 8.4 22.1 15 28 11.3 9.8 29 12.8 50.4 8.5 1.4-.3 3.6-.7 4.9-1 2.9-.5 8.6-2.3 12.3-3.7 2.5-.9 2.7-1.3 2.3-6-.3-2.7-.7-5.3-1-5.8-.3-.4-.7-2.5-1-4.6-.2-2.2-.9-5.9-1.4-8.4-1-4.3-1.4-6.8-2.8-15.2l-.6-3.8-6.4.4c-8.5.4-13.3-1.9-15.9-7.6-1.8-4-1.9-8.8-2-108.8-.1-57.5-.2-104.8-.3-105.3 0-.4-12.6-.7-27.9-.7h-27.7l.1 112.7zM96.4 279.8c-1.7.2-2.9 2.5-6.2 11-2.2 5.9-9.3 24.6-15.7 41.7-6.4 17-12.1 31.9-12.6 33-1 2.4-6.5 16.8-10.7 28-1.6 4.4-3.3 8.9-3.7 10-.5 1.1-.9 2.2-1 2.5-.1.3-.5 1.2-.8 2-1 2.2-7.7 20-8.8 23.5-.6 1.6-1.5 3.9-2 5S30.4 448.2 26 460c-8.6 22.8-13.7 36.2-15 39.5-1.1 2.8-2.3 5.9-2.4 6.5-.2.5-4.8 12.7-6.7 17.5-.7 1.6-1.3 3.5-1.4 4-.3 1.2 57.8 1.5 59 .4.3-.4.7-1.6.8-2.8.1-1.1.5-2.1.9-2.1s.8-.6.8-1.2c0-.7 1.1-4.2 2.4-7.8 1.3-3.6 3.9-10.6 5.6-15.5 1.8-5 3.5-9.7 3.8-10.5.3-.8 1.2-3.5 2.1-6l1.6-4.5 50.3-.1c47.6 0 50.4.1 51.3 1.8.5 1 .7 1.8.3 1.8-.3 0-.2.6.4 1.2.5.7 1.7 3.5 2.5 6.3.9 2.7 4.3 12.8 7.6 22.4 3.4 9.6 6.1 17.5 6.1 17.6 0 .1 59.5-.2 59.7-.4.2 0-.7-2.5-1.8-5.4-1.2-2.8-3.4-8.6-4.9-12.7-4-10.7-22-58.1-23-60.5-.4-1.1-1.8-4.7-3-8s-2.6-6.9-3.1-8c-1.2-2.7-6-15.8-6.3-17-.1-.6-1-2.7-1.9-4.9-.9-2.1-1.7-4-1.7-4.2 0-.2-1.5-4.3-3.4-9.2-1.9-4.8-4.8-12.5-6.5-17.2-1.8-4.7-3.6-9.4-4.1-10.5-.5-1.1-6.1-15.7-12.4-32.5-6.3-16.8-12.8-34.1-14.6-38.5-1.7-4.4-3.2-8.5-3.4-9-.1-.6-1-3.1-2-5.8-1.4-3.5-2.4-4.7-4-4.8-6.5-.3-61.4-.4-63.2-.1zm32.6 59.7c0 .8.4 2.3 1 3.3.5.9 2.2 5.5 3.9 10.2 3.2 9.4 5.4 15.4 16.6 47 4.3 11.8 7.8 22.2 7.9 23 .1 1.3-3.9 1.5-30.6 1.6-17 0-30.8 0-30.8-.1 0-.3 7.6-22 10.5-30 2-5.5 3.8-10.5 3.9-11 .1-.6 1-3.3 2-6 2.7-7.5 2.9-7.9 3.2-9 .2-.6 2.7-7.6 5.6-15.7 4.8-13.5 6.8-17.3 6.8-13.3zM1092.9 296c-.4.3-.8 1.4-.8 2.5s-.1 13.5-.3 27.5l-.3 25.5-11.1.1c-6 0-11.5.4-12.2.7-.7.5-1.1 7.2-1 21.7v21h24.8v22.2c.1 12.3 0 23.4 0 24.8-.1 1.4-.2 2.9-.1 3.5.9 26 5.3 44.3 14.3 59.2 3.8 6.3 12.9 15.8 17.3 18 1.7.9 3.2 1.9 3.5 2.2.3.4 2.5 1.5 5 2.5s5.4 2.2 6.5 2.7c4.9 2.3 15.7 3.6 26.5 3.3 13-.3 13.6-.4 24.3-2.9 7.5-1.8 7.7-1.9 7.8-4.9.1-3.9.5-9.8 1.3-20.1.4-4.4.9-11 1.1-14.8l.5-6.7-2.7.6c-1.6.3-4.4 1-6.3 1.5-20.2 5-33 1.3-38.6-11.1-3.6-7.9-4.1-13.3-4.2-47.2l-.2-33.6h14.3c22.2 0 21.5 0 21.4-2-.1-.9.3-5.1.7-9.2 1.2-9.8 1.2-10.4 2-18 .4-3.6.9-8.2 1.2-10.3l.5-3.7h-40v-23.6c0-13-.2-23.8-.5-24.1-.3-.3-.2-1.3.3-2.2.5-.9.5-2.5.2-3.5-.7-1.8-2.1-1.9-27.5-2-14.7-.1-27.2.1-27.7.4zM759.5 348c-5.5.9-11.8 2.3-14 3.1-2.2.7-4.2 1.4-4.5 1.4-1.7.5-7.2 2.9-11.5 5.2-24.7 12.9-40.9 36.4-45.3 65.8-.7 5.2-.6 28.9.2 33.5 1.9 10.4 2.9 14.6 3.6 15.5.4.5 1 2.3 1.4 4 2 8.2 11.6 23.2 20.3 31.6 11.8 11.4 29.1 20.5 44.8 23.5 2.2.4 4.7.9 5.5 1.1 3.4 1 31.9 1.1 37 .2 29.8-5.2 49.6-17.9 64.6-41.4 2.1-3.3 3.7-6.1 3.6-6.2-.1-.2.6-2 1.5-4 2.7-6.3 3.2-7.6 4.3-11.8 4.4-15.1 5.1-37.3 1.8-51-1.1-4.4-2.1-8.7-2.3-9.6-.8-3.6-7.2-17.7-8.6-18.9-.3-.3-.8-1-1-1.7-.9-2.6-11.5-15-16.1-18.8-2.6-2.2-5.4-4.6-6.2-5.3-.8-.6-1.9-1.2-2.4-1.2-.6 0-1.2-.4-1.4-.8-.7-1.8-21.8-12-21.8-10.5 0 .3-.6.1-1.2-.4-.7-.6-3.1-1.4-5.3-1.8-2.2-.5-4.7-1-5.5-1.2-10.2-2.2-29.2-2.4-41.5-.3zm32.2 49.1c8.5 2.9 13.9 7.4 18.7 15.4 5.8 9.6 8.5 25.3 6.4 36.5-.5 2.5-1 5.4-1.2 6.5-.6 3.3-3.8 10.9-5.3 12.6-.7.8-1.3 2-1.3 2.4 0 1.6-9.1 9.3-13.4 11.3-4.9 2.3-10.1 3.3-17.1 3.3-6.8-.1-9.9-.8-16.2-3.7-14-6.6-22.1-23.5-21-43.9 1.1-21.5 9.7-35 25.7-40.6 6.2-2.2 18.1-2.1 24.7.2zM962.8 346.5c-.2.1-2.5.5-5.3.8-4.1.4-9.8 1.6-16 3.1-2.4.7-5.5 2-13.4 5.9-15.6 7.6-28.4 23.4-30.7 37.8-.4 2.2-1.1 4.2-1.5 4.5-.5.3-.7 1-.3 1.5.3.5.7 4.5.9 8.8.1 4.4.6 8.4.9 9 .4.6.9 1.9 1.1 2.9 1.2 6.6 12.6 22.2 16.1 22.2.8 0 1.4.4 1.4.9 0 .4 3.9 2.6 8.8 4.9 9 4.1 18.8 7.1 32.7 9.8 9.4 1.8 12.1 2.3 15.5 3 1.4.3 3.6.7 5 1 6.6 1.2 14.7 4.9 17.8 8 5.5 5.8 3.7 13.3-4.2 16.9-5.3 2.4-22.1 2.8-31.5.8-7-1.6-26.4-7.7-28.4-9-.7-.4-1.4-.8-1.7-.8-1.1-.1-10.6-4.9-13.2-6.7-4.4-3-2.6-5.3-17.6 23.2-3.6 6.9-6.9 13-7.4 13.7-.6.7.2 1.9 2.4 3.6 2.9 2.1 14.4 8.7 15.1 8.6.1 0 1.6.5 3.2 1.1 1.7.6 7.5 2.4 13 4 11.4 3.3 18.9 4.7 33.5 6.5 4.6.6 27.9.6 30.6.1 1.2-.2 3.9-.7 6-1 15-2.4 31.2-9.3 40.4-17.3 5.7-4.9 12-13.4 14-18.8.6-1.7 1.3-3.7 1.7-4.5 1.2-3 2.6-10.2 2.7-14.5.1-3-.7-10.3-1.8-16.2-1.6-8.7-8.3-19-16.6-25.5-6.6-5.2-21-11.6-30.3-13.3-1-.3-2.7-.7-3.7-1-1-.3-2.9-.8-4.2-1-1.3-.3-3.4-.7-4.8-1-4.9-1.1-7.6-1.5-11.4-2-2.1-.3-4.1-.7-4.5-.9-.3-.2-2.4-.7-4.6-1-8.1-1.3-15-4.1-18.8-7.7-3.3-3.2-3.7-4.1-3.2-7 .8-4.5 4-7.7 8.9-9 6.1-1.7 19.5-1.7 27.8-.2 4 .8 8.2 1.6 9.3 1.8 1.1.2 2.1.4 2.3.5.1.2.5.3 1 .4 3 .7 12.9 4.5 19 7.2 4.1 1.9 7.7 3.4 8 3.4.6 0 19.2-37 19.2-38.3 0-.7-16.8-8.7-18.3-8.7-.7 0-1.7-.4-2.3-.9-1.4-1.4-19.4-6.7-26.9-8-.3-.1-.6-.1-.7-.2-3.1-.7-34.3-2-35-1.4zM482.5 347.5c-5.5 1.5-12.7 4-16.4 5.8-3.9 1.8-13.3 7.8-15.1 9.7-.3.3-2.2 2-4.1 3.8l-3.6 3.3-3.3-8.3c-1.8-4.6-3.8-8.8-4.5-9.3-.9-.8-35.3-1.2-43.1-.6-.9.1-1.2 22.8-1.2 89.1l-.1 89h5.2c26.2.3 50.8.1 51.5-.4.5-.3 1-26.5 1-59.8l.2-59.2 3.7-3.3c3.8-3.3 15.4-10.4 18.3-11.1.8-.2 4-.5 7-.7 6.5-.4 11.7 2 14.5 6.7 3.9 6.7 4.2 11.8 3.9 61.5-.1 26.3-.3 48-.4 48.3-.1.3-.1.9 0 1.5.6 2.6.5 7.7-.2 8.1-.3.2-.3 1.7.2 3.3.4 1.6.6 3.2.2 3.5-.7.8-1.6.7 27.6.9 16 .1 25.6-.2 26.1-.8.4-.6.7-27.1.6-59-.2-66.4-1.3-59 10-67 17.2-12.2 32.5-10.3 36.9 4.4 1.5 5.2 1.7 13.2 1.9 75.1l.2 46.5 26.5.1c14.6 0 27-.3 27.5-.7.7-.5 1-20.9.9-60.6-.1-32.9-.3-59.8-.4-59.8-.1 0-.3-1.6-.5-3.5-1.5-18.1-8.5-34.3-18.7-43.5-5.4-4.8-10.1-7.6-17.2-10.2-6.7-2.4-7.6-2.5-18.6-2.9-11.8-.3-19.6 1-29 5.2l-2.7.9c-1.3.4-2.3 1-2.3 1.4 0 .4-1.7 1.5-3.7 2.6-4.2 2.2-8.4 5.7-14.9 12.4l-4.2 4.4-1.6-3.2c-5.1-9.8-19.4-19.5-33.3-22.7-2.9-.6-23-1.3-24.8-.9zM379 576.1c-6.3 2.9-9.9 6.2-12.5 11.7-2.2 4.5-2.7 6.6-2.9 14.7-.5 14.1 5 24.4 16.1 30 5.5 2.8 7 3.2 13.3 2.9 11.1-.5 20.8-6.7 25.1-16.2 5.6-12.2 3.9-27.4-4.1-36.5-8.1-9.1-23.1-12-35-6.6zM588.9 577.4v58.3c0 29.9-.1 54.3-.3 54.3-.2 0-2.2-1.8-4.5-4-16.7-16.3-43.7-22.1-71.5-15.6-3.8.9-7.6 2.1-8.3 2.7-.7.7-1.3.9-1.3.5 0-2.2-17.7 9.2-24.1 15.4-7.4 7.3-16.6 20.9-18.4 27.1-.3 1.3-1 3.3-1.5 4.4-3.7 8.3-6.6 24.6-7.1 40-.3 7.9 2.1 26.5 4.3 33.5 6.2 20 14.7 33.5 28.9 45.5 2.5 2.2 8.1 5.9 8.9 6 .3.1 2.3 1 4.5 2.2 15.1 7.8 36.6 10 54.5 5.4 6.1-1.6 14.1-5 16.3-6.9.9-.8 1.7-1.1 1.7-.6 0 .5.4.4.8-.1.4-.6 2.3-2.2 4.2-3.6 4.3-3.2 8.3-7.1 13.2-12.8l3.8-4.3 1 2.8c.6 1.6 1.5 4.2 2.1 5.9.6 1.6 1.5 3.9 1.9 5 .5 1.1 1.6 4.1 2.6 6.7l1.7 4.8H643v-4.3c.1-6.9.1-262.8 0-267.8v-4.6h-54l-.1 4.1zm-31.1 142c1.8.3 3.8.9 4.5 1.3.6.4 1.5.8 1.8.8 1.7 0 11.2 7.1 13.8 10.3 3.5 4.1 7.5 12.3 8.4 16.7 1 4.7 1.9 10.9 1.9 12-.8 18.6-6.9 31.5-18.7 39-7.5 4.9-14.1 6.5-24.4 6.1-4.9-.2-9.4-.7-10.2-1.2-.8-.5-1.6-.9-1.9-.9-1.4-.1-7-3.1-7-3.7 0-.5-.6-.8-1.3-.8-3.7 0-14.7-14.9-16-21.7-.2-1-.8-2.6-1.2-3.6-2-4.8.1-30.7 2.5-30.7.4 0 1.1-1.2 1.4-2.6.7-2.8 1.2-3.4 7.3-10.2 4.5-5.2 12.8-9.8 19.5-11.1 4.4-.9 13.8-.7 19.6.3zM20.4 602.1c-.5.8-.7 247-.2 247.4.7.7 4.6.7 29.9.6l26.7-.1v-43.3c.1-23.7.1-44.6.1-46.4l.1-3.1h43.3c23.7-.1 43.7-.1 44.2-.1.8-.1 1.4-39.2.6-47.1-.1-1.3-5.5-1.5-44.1-1.5H77l-.1-3.5c0-5.2-.1-45 0-48.6l.1-3.2h53.3c29.2 0 55-.1 57.2-.1l4-.1-.2-23.2c-.1-12.8-.2-24.5-.2-25.9l-.1-2.6h-85c-46.8 0-85.3.4-85.6.8zM300.5 668.1c-13.1 1.5-23.8 8.3-33.1 21.2l-2 2.8-3.4-8.3c-1.8-4.6-3.7-8.8-4.2-9.5-.6-.8-7.1-1.1-21.7-1.1h-20.9l.8 2.8c.4 1.5.4 3.3 0 4-.4.6-.4 2.7 0 4.6.4 1.9.5 4.9.1 6.6-.7 3.3-.5 9.2.4 11.5.2.7 0 1.5-.6 1.8-.5.4-.7 1-.4 1.5.5.9.9 9.6.5 11.5-.4 2.1 0 16.6.5 17.5.3.5.1 1.1-.5 1.5-.6.4-.8 1.1-.4 1.6.3.5.5 5.1.4 10.2-.1 5-.1 10.1 0 11.2.1 1.1.1 2.4.1 3V773c.1 9.5-.1 14.7-.5 18.5-.1 1.1.1 3.5.5 5.3.4 1.7.3 3.5-.2 3.8-.5.3-.7.9-.4 1.4.5.9.9 9.6.5 11.5-.2 1.1-.2 15.8.1 17.1.1.5 0 1.3-.1 1.9-.1.5-.1 3.7 0 7s.2 7.2.2 8.7v2.7l27.2-.2 27.1-.2V801c.1-38.6.4-50.4 1.4-53.5 4.9-14.7 13.9-23.5 24-23.7 4.3 0 12.2 2.2 17.8 5l3.9 2 6.9-14.1c3.7-7.8 9.2-19.1 12.2-25.1 2.9-5.9 5.3-11.1 5.3-11.5 0-.6-8.3-5.3-10-5.7-.3 0-1.6-.5-3-1.1-9.2-3.8-21.1-6-28.5-5.2zM739.3 668.5c-2.9.7-5.3 1.1-5.3.9 0-.2-2 .5-4.5 1.6s-4.6 1.9-4.8 1.8c-.6-.4-8.8 4-13.7 7.3-10.6 7.2-18.5 16.1-24.8 27.9-4 7.4-8.6 19.7-9.6 25.5-.3 1.6-.8 4.1-1.1 5.5-1.6 7.5-2.3 29.4-1.2 36.5.3 1.6.8 5 1.2 7.5.4 2.5 1.3 6.6 2 9.3.8 2.6 1.4 5 1.4 5.2-.1 2.3 6.2 16 10.3 22.3 11.7 17.9 29.3 29.5 50.9 33.6 5.8 1.1 25.4 1.3 31.4.3 3.9-.7 14-3.9 15.3-4.9.6-.6 1.2-.8 1.2-.4 0 .3 2.3-.8 5.1-2.5 6.3-3.9 13.7-11 17.4-16.7 3.3-5.1 3-5.5 8 9.5l3.7 11.3h41.7l.1-3.3v-5.2c-.1-1.1-.1-2.5-.1-3 0-.6.2-4.3.3-8.3.2-3.9 0-7.2-.4-7.2s-.3-1.4.2-3c.5-1.7.5-3 0-3s-.5-1.3 0-3 .5-3 0-3-.5-1.3 0-3 .5-3 0-3-.5-1.3 0-3 .5-3 0-3-.5-1.3 0-2.9c.4-1.5.4-3.4 0-4.2-.5-.7-.5-2 0-2.9.5-.9.5-2.2 0-3-.5-.8-.5-2.1 0-3 .5-.9.5-2.2 0-3-.5-.8-.5-2.1 0-3 .5-.9.5-2.2 0-3-.4-.7-.6-1.8-.4-2.4.7-2 .9-12.6.2-12.6-.4 0-.3-1.4.2-3 .5-1.7.5-3 0-3s-.5-1.3 0-3 .5-3 0-3-.5-1.3 0-3 .5-3 0-3-.5-1.3 0-3 .5-3 0-3-.5-1.3 0-2.9c.4-1.5.4-3.4 0-4.2-.5-.7-.5-2 0-2.9.5-.9.5-2.2 0-3-.5-.8-.5-2.1 0-3 .5-.9.5-2.2 0-3-.5-.8-.5-2.1 0-3.1.5-.9.7-1.9.3-2.2-.7-.8-.8-9.5 0-10.3.3-.3.1-1.9-.3-3.5-.5-1.6-.5-3.1 0-3.4.4-.3.4-2 0-3.9s-.5-3.8-.2-4.1c.7-.6.5-12.2-.2-13.3-.2-.4-12.3-.7-26.7-.6h-26.4v11.2c0 6.2-.3 11.2-.7 11.2-.5 0-.8-.3-.8-.8 0-.8-8.5-9.6-13-13.3-3.2-2.7-11-6.9-16.5-8.9-1.6-.6-3-1.1-3-1.1s-2.5-.6-5.6-1.3c-7.3-1.7-24.8-1.7-31.6-.1zm47.8 53.3c6.7 3.2 15.9 11.7 15.9 14.7 0 .8.4 1.5.9 1.5.7 0 3.7 7.9 4.8 13 .7 2.7.6 18.4 0 21.5-1.4 6.8-1.8 8.1-4.2 13-4.3 8.7-11.3 15-20 18.1-5.7 2-21.2 2.7-25.9 1.2-11.2-3.5-19.7-10.6-23.7-19.5-1.2-2.7-2.5-5.6-3-6.5-1.8-3.5-2.8-20.7-1.6-26.9.9-4.7 3.7-12.1 6.3-16.5 2.5-4.3 9.6-11.4 11.3-11.4.5 0 1.6-.6 2.3-1.3 2.6-2.6 12-4.4 21.4-4.2 7.8.2 9.9.6 15.5 3.3zM364 679.4c-.1 5.9 0 13.2.2 14.5 0 .3-.1 1-.2 1.6-.1.5-.1 4.4 0 8.5s.1 8.2.1 9c-.1 4.7-.2 11.9 0 12.6.1.5 0 1.3-.1 1.9-.1.5-.1 4.4 0 8.5s.1 8.2.1 9c-.2 7.3-.1 12.2.4 13 .3.5.1 1.1-.3 1.4-.5.3-.6 2.5-.2 4.8.3 2.4.3 5.7 0 7.4-.4 1.6-.4 3.9 0 5 .4 1 .4 2.9-.1 4.1-.5 1.2-.4 2.5 0 2.8.5.3.6 2 .2 3.8-.5 1.8-.5 4.1-.1 5.2.4 1.1.5 2.4.3 2.8-.3.5-.4 4.5-.4 9 .2 7.8.2 9 0 11.9 0 2 0 13.9.1 17.7 0 1.9.3 3.8.6 4.2.2.4.1 1-.3 1.2-.5.3-.6 2.8-.5 5.6l.4 5.1h55.6l.4-6c.1-3.3 0-7.3-.3-9-.4-1.6-.3-3 .1-3s.4-1.9.1-4.3c-.4-2.3-.4-5.6-.1-7.2.3-1.7.3-4.5-.1-6.3-.4-1.7-.4-3.4 0-3.7.8-.4.5-7-.4-8.5-.3-.5-.1-1.1.3-1.4.5-.3.6-2.5.3-4.8-.4-2.4-.4-5.7-.1-7.3.3-1.7.3-4.7-.1-6.8-.3-2-.3-3.7.2-3.7.4 0 .6-1 .3-2.3-.2-1.2-.4-4.7-.4-7.7.1-8.8 0-12.3-.6-13.2-.3-.4-.1-.8.5-.8.5 0 .8-1 .5-2.3-.2-1.2-.4-4.7-.4-7.7.1-8.8 0-12.3-.6-13.2-.3-.4-.1-.8.5-.8.5 0 .8-1 .5-2.3-.6-3.1-.7-13.4 0-14.5.2-.4.1-1.4-.4-2.2-.5-.8-.5-2.1 0-3 .5-.9.5-2.2.1-2.9-.5-.7-.5-2.7-.1-4.4.3-1.8.3-4.7-.1-6.5-.4-1.7-.4-3.4 0-3.6.4-.3.6-2 .4-3.8-.4-3.8-.4-10.1-.1-12 .2-1-5.6-1.3-27.9-1.4l-28.3-.2v6.2zM886 673.8c0 .8 10.8 34 11.9 36.7.5 1.1 5.5 16.2 11.1 33.5s11.3 34.6 12.7 38.5c1.4 3.8 2.6 7.7 2.8 8.5.2.8 2.2 6.9 4.5 13.5l4 12c-.1 0 .1.7.4 1.5 5.9 16.9 10.3 31.7 10 33.1-.2 1.1-.6 2.7-.8 3.6-.9 3.9-8 22.8-9 24.1-4.6 6-8.5 9.1-12.6 10.2-4.6 1.2-16.4.7-18.4-.9-1.5-1-9.7-3.3-10.2-2.8-.4.4-.9 4.9-1.9 18.7-.2 3.6-.7 9.4-1 13-1.2 15.4-1.4 20-.6 20.4.4.3 3 .8 5.7 1.2 2.7.3 5.1.7 5.4.9 2.7 1.6 26.9 2.5 34 1.2 20.7-3.6 33.5-12.6 44.7-31.2 2-3.4 8.2-16.4 8.8-18.5 0-.3 2.8-8.6 6-18.5 3.3-9.9 6-18.5 6.1-19 .1-.6 1.2-3.9 2.4-7.5 1.1-3.6 3.7-11.7 5.6-18 1.9-6.3 3.9-12.4 4.4-13.5.9-2.1 2.4-7 2.1-7-.1 0 1.2-4.1 2.9-9 1.7-5 3.3-9.7 3.5-10.5.2-.8 1.6-5.3 3.1-10s2.9-9 3-9.5c.1-.6 1.4-4.6 2.9-9 1.4-4.4 2.8-8.7 3-9.5.2-.8 1.1-3.8 2-6.5 1-2.8 1.8-5.5 1.9-6 .1-.6 2.6-8.4 5.5-17.5s6.9-21.5 8.8-27.5c1.9-6.1 4.1-12.7 4.8-14.7 1.3-3.3 1.3-3.7-.3-4.2-.9-.2-13.5-.4-27.9-.4h-26.2l-1.1 3.2c-.6 1.8-1.3 4.2-1.5 5.2-.4 1.9-5.5 21.3-13.5 51.9-2.3 8.8-4.4 16.7-4.5 17.5-.2.8-.4 1.5-.5 1.5-.1 0-.3.7-.5 1.5-.6 3.3-6.9 26.5-7.2 26.9-.6.8-1.4-.7-1.9-3.5-.3-1.6-1.2-5.2-2-8s-1.7-6-1.9-7c-.2-1.1-2.7-10.2-5.5-20.4s-5.3-19.2-5.5-20c-.1-.8-1-4.2-2-7.5-.9-3.3-2.4-9.2-3.4-13-4.4-16.4-7.3-27-7.7-27.6-.5-.9-56.4-.9-56.4-.1zM1081 790.9c-6.1 1.7-6.5 1.9-12.5 7.8-11.4 11.4-10.9 36.3 1.1 48 8.7 8.4 22.5 11.1 33.7 6.5 14.8-6.1 22.8-26.7 16.9-43.5-2-5.6-2.4-6.2-7.1-11.4-7.3-8-19.7-10.9-32.1-7.4z"/></svg>