<?xml version="1.0" standalone="no"?>
<!DOCTYPE svg PUBLIC "-//W3C//DTD SVG 20010904//EN"
 "http://www.w3.org/TR/2001/REC-SVG-20010904/DTD/svg10.dtd">
<svg version="1.0" xmlns="http://www.w3.org/2000/svg"
 width="700.000000pt" height="700.000000pt" viewBox="0 0 700.000000 700.000000"
 preserveAspectRatio="xMidYMid meet">
<metadata>
Created by potrace 1.11, written by Peter Selinger 2001-2013
</metadata>
<g transform="translate(0.000000,700.000000) scale(0.100000,-0.100000)"
fill="#000000" stroke="none">
<path d="M1750 5185 c0 -113 3 -205 8 -206 4 0 104 -1 222 -3 252 -3 287 -12
337 -87 l28 -43 1 -1285 c2 -1377 3 -1349 -48 -1393 -62 -54 -97 -60 -348 -61
l-200 0 0 -206 0 -206 1000 0 1000 -1 0 207 0 206 -208 0 c-272 1 -345 21
-393 106 l-22 41 -1 535 c-1 295 0 545 2 557 4 20 6 20 460 21 400 0 637 6
699 17 10 2 52 10 93 17 41 7 77 13 80 14 3 1 19 5 35 9 318 84 548 258 659
498 37 78 70 188 83 273 12 75 8 301 -6 378 -64 365 -331 633 -744 747 -65 18
-189 43 -292 58 -22 3 -581 7 -1242 9 l-1203 4 0 -206z m2080 -219 c164 -18
256 -43 350 -92 124 -65 206 -173 235 -310 3 -13 8 -36 11 -51 8 -38 8 -229 0
-276 -14 -84 -65 -197 -113 -252 -101 -115 -287 -185 -528 -201 -60 -3 -524
-7 -625 -5 l-35 1 2 587 c0 324 2 593 2 598 1 11 610 12 701 1z"/>
<path d="M4773 2429 c-125 -17 -251 -110 -304 -224 -34 -73 -42 -110 -41 -198
2 -112 45 -210 125 -284 38 -35 100 -75 129 -83 4 -1 28 -8 53 -15 62 -19 186
-13 252 13 108 41 199 134 239 244 21 58 26 183 10 246 -55 206 -247 331 -463
301z"/>
</g>
</svg>
