<svg version="1" xmlns="http://www.w3.org/2000/svg" width="933.333" height="933.333" viewBox="0 0 700.000000 700.000000"><path d="M335.7 38.6c-.1.1-4.6.5-9.9.9-5.4.3-10.5.8-11.5.9-1 .2-4 .7-6.8 1-4.3.5-11.8 1.7-13.5 2.1-.3.1-2.5.5-5 .9s-5.6 1.1-7 1.6c-1.4.4-5.9 1.6-10 2.5-21.3 4.8-53.8 18-76 30.8-13.5 7.8-37.5 24-41 27.7-.3.3-2.5 2.1-5 4.1-7.5 6.1-9 7.5-21.3 19.7l-11.9 11.7 11 10.5c5.9 5.8 15.7 15.1 21.6 20.8 6.5 6.3 10.4 10.7 10 11.4-.4.7-3.5 4.6-6.9 8.8-18.9 23.4-34.9 54.3-43.9 84.7-7.4 25.3-10.1 44.4-10 72.3 0 18.2.7 26.2 3.6 43 1.5 9.1 1.3 8.3 4.7 21 8.8 33.6 26.7 68.2 49 95 5.8 7 27.9 29.3 32.2 32.6 1.4 1 7.1 5.3 12.6 9.5 21.7 16.5 49.3 30.5 75.3 38.3 10.8 3.2 23.1 6.2 29.5 7.2 2.8.4 5.7.9 6.5 1.1 10.4 2.3 44 3.4 59.2 2 33.2-3.1 63.5-11.9 93.1-26.9 12.4-6.3 33.1-19.6 42-27 2.8-2.4 6.3-5.2 7.7-6.3 5.1-4.1 24.7-24.3 30.9-31.9 15.9-19.5 32.9-49.2 41.5-72.7 3.5-9.7 10-33.1 11-40.2 1.3-8.6 1.8-11.3 2.2-13.7.9-5.3 1.7-20 1.7-31.5.1-25.7-2.7-46-9.9-70.7-9.3-32.4-26.8-65.4-48.2-90.8-6.7-8-25.5-26.8-31.4-31.5-2.8-2.2-5.6-4.5-6.2-5-2.8-2.6-15.9-11.8-23.5-16.5-8.8-5.4-31.8-17.2-36.1-18.5-1.4-.4-2.9-1.1-3.5-1.5-2-1.4-20.2-7.2-31.5-10-13.3-3.2-18.7-4.3-28.5-5.5-2.7-.3-7-.9-9.5-1.2-5.4-.8-41.1-.7-46 0-1.9.3-5.7.9-8.5 1.2-9.2 1.1-11.4 1.5-21.2 3.6-32.6 6.9-64.1 20.8-92.8 40.9-14.7 10.3-15.9 10.8-22 8.5-4.7-1.7-7.5-5.8-7.5-10.7.1-5 1.7-7.1 11-14 26.3-19.8 55.1-34.2 86.1-43.1 11.5-3.3 13.9-3.9 20.9-5.2 1.4-.3 4.8-.9 7.5-1.5 4.8-.9 7.7-1.3 17.5-2.5 10.5-1.3 16.4-1.6 31.5-1.7 16.5 0 25.1.6 41 2.8 16 2.2 45.3 9.7 56 14.4 1.1.5 4.8 2.1 8.2 3.5 52.7 21.5 98.2 60.3 129.1 109.8 13.8 22.2 27.9 55.2 32.7 76.7 3.2 14.1 4.5 20.4 5 24.5.4 2.7.8 5.7 1 6.5 2.6 9.7 2.6 59.4.1 73-.3 1.4-.7 4.2-1 6.3-.3 2-.9 5.4-1.2 7.5-.3 2-1.2 6.4-2.1 9.7-.8 3.3-1.7 7.1-2 8.5-.8 4.9-6.6 22.7-10.5 32.5-14.3 36.1-33.6 65.4-61.3 93.1-7.7 7.7-17.4 16.7-21.5 20.1-37.7 30.2-81 49.9-127.5 57.8-1.6.3-4 .7-5.3.9-1.3.3-5.1.8-8.5 1.1-3.4.4-8 .9-10.2 1.1-5.4.7-37.6.6-44.5 0-53.6-5.2-97.7-21.6-139.5-52.1-13.7-10-16.9-12.8-33-29C122.1 511 98.9 472.1 85.7 428c-3.5-11.5-8.4-33.6-9.3-42-.2-2.5-.7-5.6-.9-7-.6-3.3-1.6-17.9-1.8-26l-.2-6.5-17.4-.1-17.4-.2.7 14.2c.3 7.7.8 15.4 1 17.1.2 1.6.7 5.9 1.1 9.5 1.4 13.6 7.1 40.4 11.7 55 13.9 44.8 35.1 82.8 64.8 116.4 10.9 12.3 29.1 29 43 39.6 2.5 1.9 4.7 3.7 5 4 .3.3 5 3.5 10.5 7.1 8.7 5.8 12.6 8.2 22 13.6 14.5 8.4 48.9 22.8 61.5 25.8.8.2 4.7 1.3 8.6 2.4 8.9 2.5 29.9 6.8 37.9 7.7 3.3.3 6.9.8 8 1 8.5 1.7 41.6 2.2 59 1 15.5-1.1 41-5.4 55.5-9.3 7-1.9 23.9-7.2 26.5-8.3 1.1-.4 6.3-2.5 11.5-4.6 38.3-15.3 75.4-40.4 105.8-71.4 5.3-5.4 12.2-13.4 23.1-26.5 7.8-9.4 22.1-31.7 30.1-47.1 9.9-18.7 22.7-52.4 25.6-67.4.3-1.4 1.1-5 1.9-8 .8-3.1 1.7-7.3 2.1-9.4.3-2.1.7-4.8 1-5.9.2-1.2.6-3.9.9-6.2.4-2.2.8-5.1 1-6.5 2.7-16.8 2.7-61 .1-79.8-.3-1.8-.8-5.2-1.1-7.5-4.6-33.1-18.8-74.2-35.6-103.5-2.7-4.7-4.9-8.7-4.9-8.9 0-.2-3.2-5.2-7.1-11.1-18.9-28.4-40.1-51.6-66-72.3-5.7-4.6-12.4-9.7-14.9-11.4-2.5-1.6-4.7-3.3-5-3.6-.3-.3-6.1-4-13-8.1-13.5-8.1-26.1-14.7-38-19.7-4.1-1.8-8.4-3.6-9.5-4.1-5.6-2.6-32.5-11.1-39.3-12.5-.9-.2-3.9-.9-6.7-1.5-2.7-.6-5.9-1.4-7-1.6-1.1-.2-2.9-.6-4-.8-1.8-.3-11.8-1.8-21.1-3.1-8.8-1.2-48.8-2.7-49.7-1.9zm33.8 96.9c8 .7 15.8 1.9 20.5 3 1.4.3 4.1.8 6 1.1 1.9.3 7.3 1.7 12 3.1 4.7 1.4 9.4 2.8 10.5 3.1 6.1 1.6 10.7 8.4 13.1 19.2.9 4.6 1 31.4.1 36.5-1.7 8.9-6.2 21.6-11.7 33-5.1 10.6-18.6 32.3-25.2 40.4-1.3 1.6-3.4 4.4-4.8 6.2-11.2 14.7-36.3 42.9-38.1 42.9-1 0-139.9-138.4-139.9-139.3 0-.8 14.5-11.5 23-16.9 23.5-14.9 55.4-27.1 80-30.5 1.9-.2 5.8-.8 8.7-1.2 2.8-.4 8.5-.9 12.5-1 4-.1 7.4-.4 7.6-.5.4-.4 18.8.2 25.7.9zm110.8 43.1c32.7 24.6 59.4 61.2 73.2 100.7 2.7 7.6 3.4 10.2 6.5 23.2 4.3 18.5 6.7 51.3 4.6 66-.3 2.2-1 7.7-1.6 12.2-4.4 33.8-20.7 72.1-42.4 100.3l-5.3 6.9-64.3-64-64.3-64.1-12.4 12.4c-6.7 6.7-12.3 12.7-12.3 13.1 0 .5 6.8 7.6 15 15.9 8.3 8.2 15 15.1 15 15.4 0 .2-1.2.2-2.7-.1-19.1-3.7-48.2-4.2-68.5-1.2-4.8.7-8.6 1.2-8.5 1.1.1-.2 16-16.2 35.2-35.6 40.4-40.7 46.9-47.7 62.1-66.3 35.2-43.4 54.3-79.9 58-110.6.3-3 .8-5.7 1-6.1.3-.4.4-6.5.5-13.7 0-7.2.2-13.1.5-13.1s5.1 3.4 10.7 7.6zm-231.1 95.1c34.8 34.8 66.4 66.3 70.1 70.1l6.9 6.9-69.7 69.7c-38.3 38.3-69.8 69.6-70 69.6-.9 0-14-17.6-19.1-25.7-15-23.9-27.7-58-30.8-82.8-2.4-19.2-2.7-42.3-.7-58 4.3-33.1 15.6-63.8 33.8-91.7 4.6-7 15.5-21.7 16-21.4.2 0 28.7 28.5 63.5 63.3zM375 450.4c40.8 4.9 74.1 19.3 97.2 42 10.6 10.4 12.8 15.1 10.7 22.6-1.3 4.7-4 7.6-12.9 13.5-29 19.2-60.4 30.9-95.7 35.5-8.1 1.1-39.3 1.5-44.3.6-1.4-.3-4.7-.7-7.5-1.1-4.4-.5-8.5-1.1-13.5-2-25.6-4.7-54.1-16.4-77.6-31.8-12.8-8.3-16.1-15.2-11.8-24.2 3.3-7.1 26.7-27.8 37.3-33.2 2-1 4.3-2.3 5.1-2.9 4.7-3.4 30.8-13 40.5-14.9 13-2.5 20-3.6 26.5-4.1 4.1-.4 7.6-.7 7.8-.9.5-.4 33.5.3 38.2.9z"/></svg>