<?xml version="1.0" encoding="utf-8"?>
<!-- Generator: Adobe Illustrator 19.0.0, SVG Export Plug-In . SVG Version: 6.00 Build 0)  -->
<svg version="1.1" id="Layer_1" xmlns="http://www.w3.org/2000/svg" xmlns:xlink="http://www.w3.org/1999/xlink" x="0px" y="0px"
	 viewBox="0 0 150 85.4" style="enable-background:new 0 0 150 85.4;" xml:space="preserve">
<g id="XMLID_2_">
	<path id="XMLID_3_" d="M22.3,27.3H9.7l-2.3,6.4H0L11.8,2.6h8.4L32,33.7h-7.5L22.3,27.3z M19.9,20.7L16,9.7l-3.9,11H19.9z"/>
	<path id="XMLID_6_" d="M44.8,27.7l1,5.4c-5.8,2.1-11,1.3-11-6.7V0h7v25.6C41.8,27.7,43,28.1,44.8,27.7z"/>
	<path id="XMLID_8_" d="M81.8,19.9v13.8h-6.9l0-13c0-2.3-0.4-3.8-2.3-3.8c-0.9,0-2.3,0.6-3.8,2.1c0,0.3,0,0.6,0,1v13.8H62l0.1-13
		c0-2.3-0.4-3.8-2.3-3.8c-0.9,0-2.3,0.6-3.7,2v14.9h-7.2V11.6h5.6l0.9,2.3c1.5-1.5,3.5-2.9,6.1-2.9c2.5,0,5,0.9,6.3,3.4
		c1.5-1.8,3.7-3.4,6.6-3.4C78.3,10.9,81.8,13.1,81.8,19.9z"/>
	<path id="XMLID_10_" d="M97.4,10.9c6.8,0,12,4.6,12,11.8c0,5.5-3.5,11.7-12,11.7c-7,0-12-4.5-12-11.7
		C85.3,15.4,90.4,10.9,97.4,10.9z M97.4,17c-3.5,0-4.8,3-4.8,5.7c0,2.6,1.3,5.6,4.8,5.6c3.5,0,4.8-3,4.8-5.6
		C102.2,20,100.9,17,97.4,17z"/>
	<path id="XMLID_13_" d="M121.7,34.3c-3.9,0-8.7-1.4-10.3-2.9l2.7-5.1c1.3,1,5.3,2.6,7.9,2.6c2.3,0,2.9-0.8,2.9-1.6
		c0-3.5-12.9-0.4-12.9-9.1c0-3.5,3.1-7.3,9.5-7.3c3.9,0,6.3,0.9,9.3,2.4l-2.4,4.9c-1.8-0.9-4.1-1.9-6.8-1.9c-2.2,0-2.8,0.6-2.8,1.4
		c0,3.4,13,0.1,13,9.4C131.7,31.1,128.3,34.3,121.7,34.3z"/>
	<path id="XMLID_15_" d="M150,28.1l-0.4,5.6c-6.3,1.9-13.1,0.2-13.1-10.6V17h-3.1v-5.4h3.1V4.6h7v6.9h5l-0.6,5.4h-4.4v6.8
		C143.4,30.2,147.5,28.7,150,28.1z"/>
	<path id="XMLID_17_" d="M9.6,49.3v6.9h11.1v6.1H9.6v11.6H2.5V42.8h21.4v6.5H9.6z"/>
	<path id="XMLID_19_" d="M42.8,52.6L39.7,59c-0.8-0.4-1.6-0.9-2.7-0.9c-1.7,0-2.8,1.8-3.2,3.7v12.2h-6.8V51.8h5.2l1,2.4
		c1-1.7,2.6-3.1,4.9-3.1C40.3,51.2,42.1,52.2,42.8,52.6z"/>
	<path id="XMLID_21_" d="M49,39.3c2.2,0,3.7,1.5,3.7,3.9c0,2-1.4,3.9-3.7,3.9c-2.1,0-3.6-1.7-3.6-3.9C45.3,40.8,46.7,39.3,49,39.3z
		 M52.5,73.9h-7V51.8h7V73.9z"/>
	<path id="XMLID_24_" d="M80.4,39.3v34.6h-5.1l-1.2-3.2c-1.6,2.3-4,3.9-7.4,3.9c-6.2,0-10.2-4.9-10.2-11.8c0-6.7,3.8-11.7,10.3-11.7
		c3.2,0,5.4,1.2,6.8,2.9V39.3H80.4z M73.5,62.9c0-3.4-2.2-5.5-5.1-5.5c-2.9,0-5.1,2.2-5.1,5.5c0,3.3,2.2,5.5,5.1,5.5
		C71.4,68.4,73.5,66.2,73.5,62.9z"/>
	<path id="XMLID_27_" d="M108,51.8v22.1h-5.2l-1.1-3.2c-1.2,2.2-3.4,3.8-7.2,3.8c-6.3,0-10.3-4.7-10.3-11.7c0-7,4.1-11.8,10.2-11.8
		c3.2,0,5.4,1.4,6.9,3.5v-2.9H108z M101.2,62.9c0-3.3-1.9-5.5-5-5.5c-3.1,0-5,2.2-5,5.5c0,3.3,1.9,5.5,5,5.5
		C99.3,68.4,101.2,66.3,101.2,62.9z"/>
	<path id="XMLID_30_" d="M132.1,51.8l-7.9,24.9c-1.7,5.7-4.1,10.3-13.2,8.1l0.5-6.6c5.1,2.1,5.4-0.9,6.5-4.3l-7.3-22.1h7.1l3.7,13.7
		l3.6-13.7H132.1z"/>
	<path id="XMLID_32_" d="M136.4,66.3c2.3,0,3.9,1.7,3.9,4.1c0,2.2-1.5,4.2-3.9,4.2c-2.3,0-3.9-1.8-3.9-4.2
		C132.5,67.9,134,66.3,136.4,66.3z"/>
</g>
</svg>
