<svg xmlns="http://www.w3.org/2000/svg" viewBox="0 0 150 85.4">
  <path d="M22.3 27.3H9.7l-2.3 6.4H0L11.8 2.6h8.4L32 33.7h-7.5l-2.2-6.4zm-2.4-6.6L16 9.7l-3.9 11h7.8zM44.8 27.7l1 5.4c-5.8 2.1-11 1.3-11-6.7V0h7v25.6c0 2.1 1.2 2.5 3 2.1zM81.8 19.9v13.8h-6.9v-13c0-2.3-.4-3.8-2.3-3.8-.9 0-2.3.6-3.8 2.1v14.8H62l.1-13c0-2.3-.4-3.8-2.3-3.8-.9 0-2.3.6-3.7 2v14.9h-7.2V11.6h5.6l.9 2.3c1.5-1.5 3.5-2.9 6.1-2.9 2.5 0 5 .9 6.3 3.4 1.5-1.8 3.7-3.4 6.6-3.4 3.9-.1 7.4 2.1 7.4 8.9zM97.4 10.9c6.8 0 12 4.6 12 11.8 0 5.5-3.5 11.7-12 11.7-7 0-12-4.5-12-11.7-.1-7.3 5-11.8 12-11.8zm0 6.1c-3.5 0-4.8 3-4.8 5.7 0 2.6 1.3 5.6 4.8 5.6s4.8-3 4.8-5.6c0-2.7-1.3-5.7-4.8-5.7zM121.7 34.3c-3.9 0-8.7-1.4-10.3-2.9l2.7-5.1c1.3 1 5.3 2.6 7.9 2.6 2.3 0 2.9-.8 2.9-1.6 0-3.5-12.9-.4-12.9-9.1 0-3.5 3.1-7.3 9.5-7.3 3.9 0 6.3.9 9.3 2.4l-2.4 4.9c-1.8-.9-4.1-1.9-6.8-1.9-2.2 0-2.8.6-2.8 1.4 0 3.4 13 .1 13 9.4-.1 4-3.5 7.2-10.1 7.2zM150 28.1l-.4 5.6c-6.3 1.9-13.1.2-13.1-10.6V17h-3.1v-5.4h3.1v-7h7v6.9h5l-.6 5.4h-4.4v6.8c-.1 6.5 4 5 6.5 4.4zM9.6 49.3v6.9h11.1v6.1H9.6v11.6H2.5V42.8h21.4v6.5H9.6zM42.8 52.6L39.7 59c-.8-.4-1.6-.9-2.7-.9-1.7 0-2.8 1.8-3.2 3.7V74H27V51.8h5.2l1 2.4c1-1.7 2.6-3.1 4.9-3.1 2.2.1 4 1.1 4.7 1.5zM49 39.3c2.2 0 3.7 1.5 3.7 3.9 0 2-1.4 3.9-3.7 3.9-2.1 0-3.6-1.7-3.6-3.9-.1-2.4 1.3-3.9 3.6-3.9zm3.5 34.6h-7V51.8h7v22.1zM80.4 39.3v34.6h-5.1l-1.2-3.2c-1.6 2.3-4 3.9-7.4 3.9-6.2 0-10.2-4.9-10.2-11.8 0-6.7 3.8-11.7 10.3-11.7 3.2 0 5.4 1.2 6.8 2.9V39.3h6.8zm-6.9 23.6c0-3.4-2.2-5.5-5.1-5.5-2.9 0-5.1 2.2-5.1 5.5s2.2 5.5 5.1 5.5c3 0 5.1-2.2 5.1-5.5zM108 51.8v22.1h-5.2l-1.1-3.2c-1.2 2.2-3.4 3.8-7.2 3.8-6.3 0-10.3-4.7-10.3-11.7 0-7 4.1-11.8 10.2-11.8 3.2 0 5.4 1.4 6.9 3.5v-2.9h6.7zm-6.8 11.1c0-3.3-1.9-5.5-5-5.5s-5 2.2-5 5.5 1.9 5.5 5 5.5 5-2.1 5-5.5zM132.1 51.8l-7.9 24.9c-1.7 5.7-4.1 10.3-13.2 8.1l.5-6.6c5.1 2.1 5.4-.9 6.5-4.3l-7.3-22.1h7.1l3.7 13.7 3.6-13.7h7zM136.4 66.3c2.3 0 3.9 1.7 3.9 4.1 0 2.2-1.5 4.2-3.9 4.2-2.3 0-3.9-1.8-3.9-4.2 0-2.5 1.5-4.1 3.9-4.1z"/>
</svg>
