<svg xmlns="http://www.w3.org/2000/svg" id="Layer_1" viewBox="0 0 94.5 110.5">
  <style>
    .st0{fill:none;stroke:#31526f;stroke-width:2;stroke-linecap:round;stroke-miterlimit:10;} .st1{fill:none;stroke:#d3a4ff;stroke-width:1.7309;stroke-miterlimit:10;} .st2{fill:none;stroke:#d3a4ff;stroke-width:2;stroke-miterlimit:10;} .st3{fill:#d3a4ff;} .st4{fill:none;stroke:#31526f;stroke-width:3;stroke-miterlimit:10;} .st5{fill:none;stroke:#d3a4ff;stroke-width:1.3701;stroke-miterlimit:10;} .st6{fill:none;stroke:#d3a4ff;stroke-width:1.6299;stroke-linecap:round;stroke-linejoin:bevel;stroke-miterlimit:10;} .st7{fill:none;stroke:#ffdd00;stroke-width:2;stroke-linejoin:round;stroke-miterlimit:10;} .st8{fill:#FFFFFF;stroke:#ffdd00;stroke-width:2;stroke-linejoin:round;stroke-miterlimit:10;} .st9{fill:none;stroke:#31526f;stroke-width:2;stroke-linecap:round;stroke-linejoin:round;stroke-miterlimit:10;}
  </style>
  <path id="XMLID_49_" d="M41.3 20.4s16.5-9 25.3-9C77.9 11.3 65 23 65 23" class="st0"/>
  <path id="XMLID_1_" d="M-463.1 96.3h-90.8c-2.8 0-5-2.2-5-5V.5c0-2.8 2.2-5 5-5h90.8c2.8 0 5 2.2 5 5v90.8c0 2.8-2.2 5-5 5z" class="st1"/>
  <path id="XMLID_2_" d="M-559 5h101" class="st2"/>
  <path id="XMLID_4_" d="M-559 51h101" class="st2"/>
  <path id="XMLID_6_" d="M-551 62h86" class="st2"/>
  <path id="XMLID_8_" d="M-551 71h40" class="st2"/>
  <path id="XMLID_9_" d="M-551 80h40" class="st2"/>
  <path id="XMLID_15_" d="M-505 71h40" class="st2"/>
  <path id="XMLID_14_" d="M-505 80h40" class="st2"/>
  <path id="XMLID_10_" d="M-551 88h86" class="st2"/>
  <circle id="XMLID_7_" cx="-553.7" cy=".6" r="1.4" class="st3"/>
  <circle id="XMLID_12_" cx="-548" cy=".6" r="1.4" class="st3"/>
  <circle id="XMLID_13_" cx="-542.2" cy=".6" r="1.4" class="st3"/>
  <g id="XMLID_332_">
    <g id="XMLID_115_">
      <path id="XMLID_22_" d="M-508.2 42.8c-8.3 0-15-6.8-15-14.8h1.4c0 7 6.1 13.3 13.6 13.3s13.6-6.2 13.6-13.7-6.2-13.6-13.6-13.6c-3.9 0-7.5 1.5-10 4.4l-1.1-1c2.9-3.2 6.8-4.9 11.1-4.9 8.3 0 15 6.8 15 15.1s-6.8 15.2-15 15.2z" class="st3"/>
    </g>
    <g id="XMLID_114_">
      <path id="XMLID_18_" d="M-508.2 39.6c-6.7 0-12.1-5.4-12.1-12.1 0-6.7 5.4-12.1 12.1-12.1 6.7 0 12.1 5.4 12.1 12.1-.1 6.7-5.5 12.1-12.1 12.1zm0-22.7c-5.9 0-10.7 4.8-10.7 10.7s4.8 10.7 10.7 10.7c5.9 0 10.7-4.8 10.7-10.7s-4.9-10.7-10.7-10.7z" class="st3"/>
    </g>
    <g id="XMLID_113_">
      <path id="XMLID_17_" d="M-514.9 35.3l-1.1-.9c1.9-2.3 4.8-3.6 7.8-3.6 2.8 0 5.7 1.2 7.5 3.3l-1 1c-1.6-1.8-4.1-2.8-6.5-2.8-2.6-.1-5 1-6.7 3z" class="st3"/>
    </g>
    <g id="XMLID_112_">
      <path id="XMLID_16_" d="M-505.677 29.035l6.01 6.01-.99.99-6.01-6.01z" class="st3"/>
    </g>
    <g id="XMLID_111_">
      <path id="XMLID_11_" d="M-517.863 16.8l10.253 10.254-.99.99-10.253-10.253z" class="st3"/>
    </g>
    <g id="XMLID_110_">
      <path id="XMLID_20_" d="M-515.7 36.1l-1-1 8.1-8.1s2.9-2.8 4-5.2c1.2-2.6.1-4.4 0-4.4l1.2-.8c.1.1 1.6 2.5 0 5.8-1.2 2.7-4.2 5.5-4.3 5.7l-8 8z" class="st3"/>
    </g>
  </g>
  <circle id="XMLID_3_" cx="-281" cy="51" r="50" class="st2"/>
  <circle id="XMLID_5_" cx="-281" cy="51" r="44" class="st4"/>
  <g id="XMLID_206_">
    <path id="XMLID_207_" d="M-279.8 65.2v4.5h-1.8v-4.4c-3.8-.2-6.3-1.4-8.8-3.9l1.6-1.6c2.4 2.4 4.3 3.2 7.2 3.4V51.1l-.7-.1c-2.1-.3-4.1-1.2-5.2-2.1-1.5-1.3-2.3-3.1-2.3-5.4 0-4.6 3.1-7.6 8.2-8V32h1.8v3.6c3.1.2 5.2 1.1 7.5 3.1l-1.4 1.4c-1.6-1.4-3.2-2.5-6-2.7v11.9l1.2.2c2.7.5 4 .9 5.2 1.9 1.6 1.3 2.5 3.3 2.5 5.7-.1 4.8-3.4 7.8-9 8.1zm-7.9-21.7c0 1.7.5 3 1.5 3.8 1.3 1.1 3 1.6 4.5 1.8V37.5c-3.7.3-6 2.5-6 6zm13 9.7c-1.6-1.4-3.2-1.4-5.1-1.7v11.8c4.1-.3 6.7-2.4 6.7-6 0-1.8-.5-3.2-1.6-4.1z" class="st3"/>
  </g>
  <g id="XMLID_27_">
    <path id="XMLID_24_" d="M-100 80.5l-16.9 7 4.9-17.6 41.8-47.1c1.3-1.4 3.4-1.5 4.8-.3l6.9 6.1c1.4 1.3 1.5 3.4.3 4.8L-100 80.5z" class="st5"/>
    <path id="XMLID_26_" d="M-114.4 79.6l5.2 4.6-7.7 3.2z" class="st3"/>
    <path id="XMLID_25_" d="M-112.1 69.8l4.4-.4-.1 4.2 4-.7-.4 4 4.5-.4-.4 4" class="st5"/>
    <path id="XMLID_29_" d="M-103.6 72.7l41.8-47.2" class="st5"/>
    <path id="XMLID_30_" d="M-99.5 76.3l41.8-47.1" class="st5"/>
    <path id="XMLID_28_" d="M-108.2 69.6l42.3-47.7" class="st5"/>
  </g>
  <g id="XMLID_264_">
    <path id="XMLID_265_" d="M-118 88.1h-11.3l-3.3-9.9h-19.8l-3.4 9.9h-11.3l20.3-55.7h8.5l15.4 42.2m-19.4-25.8l-7 20.3h13.8l-6.8-20.3z" class="st6"/>
  </g>
  <path id="XMLID_43_" d="M73.4 107L5.2 85l7.9-64.7 55.3 10.6z" class="st7"/>
  <g id="XMLID_45_">
    <path id="XMLID_52_" d="M81.7 26.1l7.2 67.7h.2l-7-68L20.5 18l-.6 3.6 48.5 9.3 1.6-3.7z" class="st7"/>
  </g>
  <path id="XMLID_47_" d="M13.1 20.3l5.4-.3 2-2" class="st8"/>
  <path id="XMLID_46_" d="M31 32.2s.5-28.9 15.3-28.6c13 .3 10 34.2 10 34.2" class="st9"/>
  <path id="XMLID_44_" d="M73.4 107l6.2-10.8 9.3-2.2-7.2-67.9L70 27.2l-1.6 3.7z" class="st7"/>
</svg>
