<svg id="Layer_1" xmlns="http://www.w3.org/2000/svg" viewBox="-252 245.5 94.5 110.5"><style>.st0,.st1{fill:none}.st0,.st1,.st2,.st3{stroke-width:2;stroke-miterlimit:10}.st0{stroke-linecap:round;stroke:#4e91ff}.st1,.st2{stroke:#31526f}.st1,.st2,.st3{stroke-linejoin:round}.st2{fill:#31526f}.st3{fill:none;stroke:#4e91ff;stroke-linecap:round}</style><path id="XMLID_49_" class="st0" d="M-210.7 265.9s16.5-9 25.3-9c11.3-.1-1.6 11.6-1.6 11.6"/><path id="XMLID_43_" class="st1" d="M-178.6 352.5l-68.2-22 7.9-64.7 55.3 10.6 5 76.1z"/><g id="XMLID_45_"><path id="XMLID_52_" class="st1" d="M-170.3 271.6l7.2 67.7h.2l-7-68-61.6-7.8-.6 3.6 48.5 9.3 1.6-3.7 11.7-1.1z"/></g><path id="XMLID_47_" class="st2" d="M-238.9 265.8l5.4-.3 2-2"/><path id="XMLID_46_" class="st3" d="M-221 277.7s.5-28.9 15.3-28.6c13 .3 10 34.2 10 34.2"/><path id="XMLID_44_" class="st1" d="M-178.6 352.5l6.2-10.8 9.3-2.2-7.2-67.9-11.7 1.1-1.6 3.7 5 76.1z"/></svg>