<svg xmlns="http://www.w3.org/2000/svg" id="Layer_1" viewBox="0 0 105 105.1">
  <style>
    .st0{fill:#31526F;}
  </style>
  <path id="XMLID_110_" d="M52.5 2.7C38.2 2.7 25 8.5 15.5 19l7 6.8C16.1 33 12.2 42.4 12.2 52.7 12.2 74.9 30.3 93 52.5 93s40.3-18.1 40.3-40.3-18.1-40.3-40.3-40.3c-10.2 0-19.5 3.8-26.6 10l-3.5-3.5c8.2-7.4 18.7-11.4 30.1-11.4 24.9 0 45.2 20.2 45.2 45.1S77.4 97.5 52.5 97.5 7.3 78.1 7.3 52.1H2.5c0 29 22.4 50.3 50 50.3s50-22.3 50-49.9-22.4-49.8-50-49.8zM17 52.7c0-9 3.4-17.2 8.9-23.4l23.5 23.5-18.8 18.8c-1.2 1-2.3 2.2-3.4 3.4L26 76.2c-5.6-6.2-9-14.5-9-23.5zm12.5 26.9l1-1 .3-.3 3.2-3.2c5.2-4.4 11.8-6.9 18.7-6.9 7.5 0 15 3 20.4 8.1l.8.8.4.4 1.6 1.6C69.6 84.6 61.5 88 52.5 88c-8.8.1-16.8-3.1-23-8.4zM88 52.7c0 8.8-3.3 16.9-8.6 23.1l-2.1-2.1-.8-.8L61 57.5 57.6 61l3.5 3.5c-2.8-.7-5.6-1.1-8.5-1.1-2.7 0-5.4.3-7.9 1l10-10c.4-.4 10.3-9.9 14.4-18.8 2.4-5.2 2.6-9.7 2-13.1C81.2 28.8 88 40 88 52.7zM52.5 17.2c4.5 0 8.8.9 12.8 2.4.9 1.9 2.6 7.1-.6 13.9-2.8 6.1-8.9 12.8-11.8 15.8L29.4 25.8c6.2-5.3 14.3-8.6 23.1-8.6z" class="st0"/>
</svg>
