<svg id="Layer_1" xmlns="http://www.w3.org/2000/svg" viewBox="-240 251.1 117.9 98.9"><style>.st0{fill:none;stroke:#31526f;stroke-width:1.3701;stroke-miterlimit:10}.st1{fill:#fd0}.st2{fill:none;stroke:#fd0;stroke-width:1.6299;stroke-linecap:round;stroke-linejoin:bevel;stroke-miterlimit:10}</style><g id="XMLID_27_"><path id="XMLID_24_" class="st0" d="M-166.6 328l-16.9 7 4.9-17.6 41.8-47.1c1.3-1.4 3.4-1.5 4.8-.3l6.9 6.1c1.4 1.3 1.5 3.4.3 4.8l-41.8 47.1z"/><path id="XMLID_26_" class="st1" d="M-181 327.1l5.1 4.6-7.7 3.2 2.6-7.8z"/><path id="XMLID_25_" class="st0" d="M-178.7 317.3l4.4-.4-.2 4.2 4.1-.7-.4 4 4.4-.4-.3 4"/><path id="XMLID_29_" class="st0" d="M-170.3 320.2l41.9-47.2"/><path id="XMLID_30_" class="st0" d="M-166.2 323.8l41.9-47.1"/><path id="XMLID_28_" class="st0" d="M-174.8 317.1l42.3-47.7"/></g><g id="XMLID_264_"><path id="XMLID_265_" class="st2" d="M-184.6 335.6H-196l-3.3-9.9H-219l-3.4 9.9h-11.4l20.3-55.7h8.5l15.4 42.2m-19.4-25.8l-7 20.3h13.8l-6.8-20.3z"/></g></svg>