<svg xmlns="http://www.w3.org/2000/svg" viewBox="0 0 820 460"><path d="M450.2 180.9h-23.6v54.6c0 14-5.8 25.2-22.7 25.2-16.7.2-21.6-11.3-21.6-25.9V181h-23.6v59.8c0 17.3 6.1 41.9 38.5 42.1 17.8.2 26.6-8.5 30.8-16.2v13.1h22.1v-98.9zm9.4 98.8h23.6v-54.6c0-13.9 5.8-25 22.5-25.2 16.6 0 21.4 11.3 21.4 26.1v53.7h23.6v-59.6c0-17.5-6.1-42.1-38.3-42.3-17.6-.2-26.5 8.5-30.8 16.2.2-4.7.2-8.8.2-13.1h-22.1v98.8zm100.1-112.1h23.6v-21.1h-23.6v21.1zm0 112.1h23.6v-98.8h-23.6v98.8zm48.3 0h23.6V199h16.9l-7-18.2h-9.9v-34.4H608v34.4h-16.4V199H608v80.7zm63.3 34.6h25.2l52-133.4h-25.2l-23.8 65.7-24.1-65.7h-25.2l37.3 95.1-16.2 38.3zM313 204.2l-26.3-97.7-98 26.2-14.5 25.5-29.4-.2L73 229.5l71.8 71.5 29.4-.2 14.5 25.5 98 26.2 26.3-97.7-14.9-25.3 14.9-25.3zM251.5 143l-43 74.3h-86.1l54.2-55.1 74.9-19.2zm-43 98.5l43.1 74.3-75-19.2-54.2-55.1h86.1zm21-12l43.1-74.3 20.8 74.3-20.8 74.3-43.1-74.3z"/></svg>