<svg xmlns="http://www.w3.org/2000/svg" id="Layer_1" viewBox="0 0 102.5 102.5">
  <style>
    .st0{fill:none;stroke:#31526f;stroke-width:1.7309;stroke-miterlimit:10;} .st1{fill:none;stroke:#d3a4ff;stroke-width:2;stroke-miterlimit:10;} .st2{fill:#d3a4ff;} .st3{fill:none;stroke:#d3a4ff;stroke-width:3;stroke-miterlimit:10;}
  </style>
  <path id="XMLID_1_" d="M96.7 101.7H5.9c-2.8 0-5-2.2-5-5V5.9c0-2.8 2.2-5 5-5h90.8c2.8 0 5 2.2 5 5v90.8c0 2.7-2.3 5-5 5z" class="st0"/>
  <path id="XMLID_2_" d="M.7 10.3h101" class="st1"/>
  <path id="XMLID_4_" d="M.7 56.3h101" class="st1"/>
  <path id="XMLID_6_" d="M8.7 67.3h86" class="st1"/>
  <path id="XMLID_8_" d="M8.7 76.3h40" class="st1"/>
  <path id="XMLID_9_" d="M8.7 85.3h40" class="st1"/>
  <path id="XMLID_15_" d="M54.7 76.3h40" class="st1"/>
  <path id="XMLID_14_" d="M54.7 85.3h40" class="st1"/>
  <path id="XMLID_10_" d="M8.7 93.3h86" class="st1"/>
  <circle id="XMLID_7_" cx="6" cy="5.9" r="1.4" class="st2"/>
  <circle id="XMLID_12_" cx="11.7" cy="5.9" r="1.4" class="st2"/>
  <circle id="XMLID_13_" cx="17.5" cy="5.9" r="1.4" class="st2"/>
  <g id="XMLID_332_">
    <g id="XMLID_115_">
      <path id="XMLID_22_" d="M51.5 48.1c-8.3 0-15-6.8-15-14.8h1.4c0 7 6.1 13.3 13.6 13.3S65 40.4 65 33s-6.1-13.6-13.6-13.6c-3.9 0-7.5 1.5-10 4.4l-1.1-1c2.9-3.2 6.8-4.9 11.1-4.9 8.3 0 15 6.8 15 15.1s-6.7 15.1-14.9 15.1z" class="st2"/>
    </g>
    <g id="XMLID_114_">
      <path id="XMLID_18_" d="M51.5 44.9c-6.7 0-12.1-5.4-12.1-12.1 0-6.7 5.4-12.1 12.1-12.1s12.1 5.4 12.1 12.1c0 6.7-5.5 12.1-12.1 12.1zm0-22.7c-5.9 0-10.7 4.8-10.7 10.7s4.8 10.7 10.7 10.7 10.7-4.8 10.7-10.7-4.9-10.7-10.7-10.7z" class="st2"/>
    </g>
    <g id="XMLID_113_">
      <path id="XMLID_17_" d="M44.8 40.6l-1.1-.9c1.9-2.3 4.8-3.6 7.8-3.6 2.8 0 5.7 1.2 7.5 3.3l-1.1 1c-1.6-1.8-4.1-2.8-6.5-2.8-2.5-.1-4.9 1.1-6.6 3z" class="st2"/>
    </g>
    <g id="XMLID_112_">
      <path id="XMLID_16_" d="M54.04 34.33l6 6-.98 1-6-6z" class="st2"/>
    </g>
    <g id="XMLID_111_">
      <path id="XMLID_11_" d="M41.85 22.1L52.1 32.35l-.98 1L40.86 23.1z" class="st2"/>
    </g>
    <g id="XMLID_110_">
      <path id="XMLID_5_" d="M44.1 41.4l-1-1 8.1-8.1s2.9-2.8 4-5.2c1.2-2.6.1-4.4 0-4.4l1.2-.8c.1.1 1.6 2.5 0 5.8-1.2 2.7-4.2 5.5-4.3 5.7l-8 8z" class="st2"/>
    </g>
  </g>
  <circle id="XMLID_3_" cx="278.7" cy="56.3" r="50" class="st1"/>
  <circle id="XMLID_20_" cx="278.7" cy="56.3" r="44" class="st3"/>
  <text id="XMLID_23_" transform="translate(267.174 70.32)" class="st2" font-family="DINPro-Light" font-size="41">
    $
  </text>
  <g id="XMLID_27_">
    <path id="XMLID_24_" d="M441 95.9l-24.7 10.2 7.1-25.8 61-68.7c1.8-2.1 5-2.3 7.1-.4l10.1 9c2.1 1.8 2.3 5 .4 7.1l-61 68.6z" class="st1"/>
    <path id="XMLID_26_" d="M420 94.7l7.5 6.6-11.2 4.8z" class="st2"/>
    <path id="XMLID_25_" d="M423.3 80.4l6.4-.7-.1 6.2 5.9-1.1-.6 5.9 6.5-.6-.5 5.9" class="st1"/>
    <path id="XMLID_29_" d="M435.7 84.5l61.1-68.8" class="st1"/>
    <path id="XMLID_30_" d="M441.7 89.9l61-68.9" class="st1"/>
    <path id="XMLID_28_" d="M429.1 80l61.7-69.6" class="st1"/>
  </g>
</svg>
