<svg id="Layer_1" xmlns="http://www.w3.org/2000/svg" viewBox="-242 243.9 113.3 114.1"><style>.st0,.st1{fill:none;stroke:#31526f;stroke-width:2;stroke-miterlimit:10}.st1{stroke:#4E91FF}.st2{fill:#31526f}.st3{fill:#4E91FF}.st4{fill:none;stroke:#31526f;stroke-width:1.7309;stroke-miterlimit:10}</style><path id="XMLID_2_" class="st0" d="M-235.8 260.1h101"/><path id="XMLID_4_" class="st0" d="M-235.8 306.1h101"/><path id="XMLID_6_" class="st1" d="M-227.8 317.1h86"/><path id="XMLID_8_" class="st1" d="M-227.8 326.1h40"/><path id="XMLID_9_" class="st1" d="M-227.8 335.1h40"/><path id="XMLID_15_" class="st1" d="M-181.8 326.1h40"/><path id="XMLID_14_" class="st1" d="M-181.8 335.1h40"/><path id="XMLID_10_" class="st1" d="M-227.8 343.1h86"/><circle id="XMLID_7_" class="st2" cx="-230.5" cy="255.6" r="1.4"/><circle id="XMLID_12_" class="st2" cx="-224.8" cy="255.6" r="1.4"/><circle id="XMLID_13_" class="st2" cx="-218.9" cy="255.6" r="1.4"/><g id="XMLID_332_"><g id="XMLID_115_"><path id="XMLID_22_" class="st3" d="M-185 297.8c-8.3 0-15-6.8-15-14.8h1.4c0 7 6.1 13.3 13.6 13.3s13.6-6.2 13.6-13.7-6.1-13.6-13.6-13.6c-3.9 0-7.5 1.5-10 4.4l-1.1-1c2.9-3.2 6.8-4.9 11.1-4.9 8.3 0 15 6.8 15 15.1s-6.8 15.2-15 15.2z"/></g><g id="XMLID_114_"><path id="XMLID_18_" class="st3" d="M-185 294.7c-6.7 0-12.1-5.4-12.1-12.1s5.4-12.1 12.1-12.1c6.7 0 12.1 5.4 12.1 12.1 0 6.7-5.4 12.1-12.1 12.1zm0-22.8c-5.9 0-10.7 4.8-10.7 10.7 0 5.9 4.8 10.7 10.7 10.7s10.7-4.8 10.7-10.7c0-5.9-4.8-10.7-10.7-10.7z"/></g><g id="XMLID_113_"><path id="XMLID_17_" class="st3" d="M-191.6 290.4l-1.1-.9c1.9-2.3 4.8-3.6 7.8-3.6 2.8 0 5.7 1.2 7.5 3.3l-1.1 1c-1.6-1.8-4.1-2.8-6.5-2.8-2.5-.1-4.9 1-6.6 3z"/></g><g id="XMLID_112_"><path id="XMLID_16_" class="st3" d="M-182.4 284l6 6-1 1-6-6 1-1z"/></g><g id="XMLID_111_"><path id="XMLID_11_" class="st3" d="M-194.8 271.8l10.3 10.3-1 1-10.3-10.3 1-1z"/></g><g id="XMLID_110_"><path id="XMLID_20_" class="st3" d="M-192.4 291.2l-1-1 8.1-8.1s2.9-2.8 4-5.2c1.2-2.6.1-4.4 0-4.4l1.2-.8c.1.1 1.6 2.5 0 5.8-1.2 2.7-4.2 5.5-4.3 5.7l-8 8z"/></g></g><path id="XMLID_1_" class="st4" d="M-139.8 351.4h-90.8c-2.8 0-5-2.2-5-5v-90.8c0-2.8 2.2-5 5-5h90.8c2.8 0 5 2.2 5 5v90.8c0 2.8-2.2 5-5 5z"/></svg>