<svg xmlns="http://www.w3.org/2000/svg" id="Layer_1" viewBox="0 0 113.3 114.1">
  <style>
    .st0{fill:none;stroke:#31526F;stroke-width:2;stroke-linecap:round;stroke-miterlimit:10;} .st1{fill:none;stroke:#ffdd00;stroke-width:2;stroke-miterlimit:10;} .st2{fill:#31526F;} .st3{fill:none;stroke:#31526F;stroke-width:3;stroke-miterlimit:10;} .st4{fill:none;stroke:#31526F;stroke-width:1.3701;stroke-miterlimit:10;} .st5{fill:none;stroke:#31526F;stroke-width:1.6299;stroke-linecap:round;stroke-linejoin:bevel;stroke-miterlimit:10;} .st6{fill:none;stroke:#31526F;stroke-width:2;stroke-linejoin:round;stroke-miterlimit:10;} .st7{fill:#FFFFFF;stroke:#31526F;stroke-width:2;stroke-linejoin:round;stroke-miterlimit:10;} .st8{fill:none;stroke:#31526F;stroke-width:2;stroke-linecap:round;stroke-linejoin:round;stroke-miterlimit:10;} .st9{fill:none;stroke:#31526F;stroke-width:1.7309;stroke-miterlimit:10;}
  </style>
  <path id="XMLID_49_" d="M607.7 32s16.5-9 25.3-9c11.2 0-1.7 11.7-1.7 11.7" class="st0"/>
  <path id="XMLID_2_" d="M7.3 16.7h101" class="st1"/>
  <path id="XMLID_4_" d="M7.3 62.7h101" class="st1"/>
  <path id="XMLID_6_" d="M15.3 73.7h86" class="st1"/>
  <path id="XMLID_8_" d="M15.3 82.7h40" class="st1"/>
  <path id="XMLID_9_" d="M15.3 91.7h40" class="st1"/>
  <path id="XMLID_15_" d="M61.3 82.7h40" class="st1"/>
  <path id="XMLID_14_" d="M61.3 91.7h40" class="st1"/>
  <path id="XMLID_10_" d="M15.3 99.7h86" class="st1"/>
  <circle id="XMLID_7_" cx="12.6" cy="12.2" r="1.4" class="st2"/>
  <circle id="XMLID_12_" cx="18.4" cy="12.2" r="1.4" class="st2"/>
  <circle id="XMLID_13_" cx="24.2" cy="12.2" r="1.4" class="st2"/>
  <g id="XMLID_332_">
    <g id="XMLID_115_">
      <path id="XMLID_22_" d="M58.1 54.4c-8.3 0-15-6.8-15-14.8h1.4c0 7 6.1 13.3 13.6 13.3s13.6-6.2 13.6-13.7-6.1-13.6-13.6-13.6c-3.9 0-7.5 1.5-10 4.4L47 29c2.9-3.2 6.8-4.9 11.1-4.9 8.3 0 15 6.8 15 15.1s-6.7 15.2-15 15.2z" class="st2"/>
    </g>
    <g id="XMLID_114_">
      <path id="XMLID_18_" d="M58.1 51.3c-6.7 0-12.1-5.4-12.1-12.1 0-6.7 5.4-12.1 12.1-12.1 6.7 0 12.1 5.4 12.1 12.1 0 6.7-5.4 12.1-12.1 12.1zm0-22.8c-5.9 0-10.7 4.8-10.7 10.7s4.8 10.7 10.7 10.7c5.9 0 10.7-4.8 10.7-10.7S64 28.5 58.1 28.5z" class="st2"/>
    </g>
    <g id="XMLID_113_">
      <path id="XMLID_17_" d="M51.5 47l-1.1-.9c1.9-2.3 4.8-3.6 7.8-3.6 2.8 0 5.7 1.2 7.5 3.3l-1.1 1C63 45 60.5 44 58.1 44c-2.5-.1-4.9 1-6.6 3z" class="st2"/>
    </g>
    <g id="XMLID_112_">
      <path id="XMLID_16_" d="M60.68585 40.60443l6.01035 6.01035-.98994.98994-6.01035-6.01035z" class="st2"/>
    </g>
    <g id="XMLID_111_">
      <path id="XMLID_11_" d="M48.43154 28.43852l10.25295 10.25295-.98994.98994L47.4416 29.42846z" class="st2"/>
    </g>
    <g id="XMLID_110_">
      <path id="XMLID_20_" d="M50.7 47.8l-1-1 8.1-8.1s2.9-2.8 4-5.2c1.2-2.6.1-4.4 0-4.4l1.2-.8c.1.1 1.6 2.5 0 5.8-1.2 2.7-4.2 5.5-4.3 5.7l-8 8z" class="st2"/>
    </g>
  </g>
  <circle id="XMLID_3_" cx="285.3" cy="62.7" r="50" class="st1"/>
  <circle id="XMLID_5_" cx="285.3" cy="62.7" r="44" class="st3"/>
  <g id="XMLID_206_">
    <path id="XMLID_207_" d="M286.5 76.9v4.5h-1.8V77c-3.8-.2-6.3-1.4-8.8-3.9l1.6-1.6c2.4 2.4 4.3 3.2 7.2 3.4V62.8l-.7-.1c-2.1-.3-4.1-1.2-5.2-2.1-1.5-1.3-2.3-3.1-2.3-5.4 0-4.6 3.1-7.6 8.2-8v-3.6h1.8v3.6c3.1.2 5.2 1.1 7.5 3.1l-1.4 1.4c-1.6-1.4-3.2-2.5-6-2.7v12l1.2.2c2.7.5 4 .9 5.2 1.9 1.6 1.3 2.5 3.3 2.5 5.7 0 4.8-3.4 7.8-9 8.1zm-7.8-21.8c0 1.7.5 3 1.5 3.8 1.3 1.1 3 1.6 4.5 1.8V49.2c-3.8.2-6 2.5-6 5.9zm13 9.7c-1.6-1.4-3.2-1.4-5.1-1.7v11.8c4.1-.3 6.7-2.4 6.7-6 0-1.7-.5-3.1-1.6-4.1z" class="st2"/>
  </g>
  <g id="XMLID_27_">
    <path id="XMLID_24_" d="M466.4 92.1l-16.9 7 4.9-17.6 41.8-47.1c1.3-1.4 3.4-1.5 4.8-.3l6.9 6.1c1.4 1.3 1.5 3.4.3 4.8l-41.8 47.1z" class="st4"/>
    <path id="XMLID_26_" d="M452 91.3l5.1 4.5-7.7 3.3z" class="st2"/>
    <path id="XMLID_25_" d="M454.3 81.5l4.4-.5-.2 4.3 4.1-.8-.4 4.1 4.4-.5-.3 4.1" class="st4"/>
    <path id="XMLID_29_" d="M462.7 84.4l41.9-47.2" class="st4"/>
    <path id="XMLID_30_" d="M466.8 88l41.9-47.2" class="st4"/>
    <path id="XMLID_28_" d="M458.2 81.2l42.3-47.6" class="st4"/>
  </g>
  <g id="XMLID_264_">
    <path id="XMLID_265_" d="M448.4 99.8H437l-3.3-9.9H414l-3.4 9.9h-11.3L419.5 44h8.5l15.4 42.2M424 60.5l-7 20.3h13.8L424 60.5z" class="st5"/>
  </g>
  <path id="XMLID_43_" d="M639.8 118.7l-68.2-22 7.8-64.7 55.4 10.5z" class="st6"/>
  <g id="XMLID_45_">
    <path id="XMLID_52_" d="M648.1 37.7l7.2 67.7.2.1-7-68-61.7-7.9-.5 3.7 48.5 9.2 1.5-3.7z" class="st6"/>
  </g>
  <path id="XMLID_47_" d="M579.4 32l5.4-.3 2-2.1" class="st7"/>
  <path id="XMLID_46_" d="M597.3 43.8s.5-28.9 15.3-28.6c13 .3 10 34.2 10 34.2" class="st8"/>
  <path id="XMLID_44_" d="M639.8 118.7l6.2-10.9 9.3-2.1-7.2-67.9-11.8 1-1.5 3.7z" class="st6"/>
  <path id="XMLID_1_" d="M103.3 108H12.5c-2.8 0-5-2.2-5-5V12.2c0-2.8 2.2-5 5-5h90.8c2.8 0 5 2.2 5 5V103c0 2.8-2.2 5-5 5z" class="st9"/>
</svg>
